<svg width="24" height="24" viewBox="0 0 24 24" fill="none" xmlns="http://www.w3.org/2000/svg">
<path d="M12 24C18.6274 24 24 18.6274 24 12C24 5.37258 18.6274 0 12 0C5.37258 0 0 5.37258 0 12C0 18.6274 5.37258 24 12 24Z" fill="#6F55FF"/>
<path d="M17.0791 8.2142C17.027 8.16208 16.9651 8.12074 16.8971 8.09253C16.829 8.06432 16.756 8.0498 16.6823 8.0498C16.6087 8.0498 16.5357 8.06432 16.4676 8.09253C16.3995 8.12074 16.3377 8.16208 16.2856 8.2142L9.56411 14.9374L6.97828 12.3532C6.92736 12.2965 6.86542 12.2507 6.79624 12.2188C6.72705 12.1868 6.65208 12.1692 6.57589 12.1672C6.4997 12.1652 6.4239 12.1787 6.35311 12.2069C6.28232 12.2352 6.21802 12.2775 6.16415 12.3314C6.11027 12.3853 6.06795 12.4497 6.03977 12.5205C6.01158 12.5913 5.99812 12.6671 6.00021 12.7433C6.0023 12.8195 6.01989 12.8944 6.05192 12.9636C6.08394 13.0328 6.12973 13.0947 6.18647 13.1455L9.16544 16.1278C9.27071 16.233 9.4134 16.292 9.56217 16.292C9.71094 16.292 9.85363 16.233 9.9589 16.1278L17.0791 9.00822C17.1313 8.95612 17.1727 8.89424 17.2009 8.82612C17.2292 8.75799 17.2437 8.68496 17.2437 8.61121C17.2437 8.53746 17.2292 8.46443 17.2009 8.39631C17.1727 8.32818 17.1313 8.2663 17.0791 8.2142Z" fill="white"/>
</svg>
